<svg width="19" height="18" viewBox="0 0 19 18" fill="none" xmlns="http://www.w3.org/2000/svg">
<path d="M16.625 8.62502C16.6277 9.61492 16.3836 10.5914 15.9125 11.475C15.3539 12.5338 14.4952 13.4244 13.4326 14.047C12.3699 14.6696 11.1453 14.9996 9.89583 15C8.85094 15.0026 7.82017 14.7713 6.8875 14.325L2.375 15.75L3.87917 11.475C3.40807 10.5914 3.16394 9.61492 3.16667 8.62502C3.16715 7.44134 3.51548 6.28116 4.17265 5.27443C4.82982 4.26771 5.76987 3.4542 6.8875 2.92502C7.82017 2.47872 8.85094 2.24744 9.89583 2.25002H10.2917C11.9418 2.33627 13.5003 2.99609 14.6689 4.10317C15.8375 5.21024 16.534 6.68676 16.625 8.25002V8.62502Z" stroke="white" stroke-width="2" stroke-linecap="round" stroke-linejoin="round"/>
</svg>
